<?xml version="1.0" standalone="no"?><!DOCTYPE svg PUBLIC "-//W3C//DTD SVG 1.1//EN" "http://www.w3.org/Graphics/SVG/1.1/DTD/svg11.dtd"><svg t="1505127618418" class="icon" style="" viewBox="0 0 1024 1024" version="1.1" xmlns="http://www.w3.org/2000/svg" p-id="1202" xmlns:xlink="http://www.w3.org/1999/xlink" width="32" height="32"><defs><style type="text/css"></style></defs><path d="M657.066667 484.266667l-245.333333-245.333333c-12.8-12.8-33.066667-12.8-44.8 0-12.8 12.8-12.8 33.066667 0 45.866667L595.2 512 366.933333 740.266667c-12.8 12.8-12.8 33.066667 0 45.866667 12.8 12.8 33.066667 12.8 44.8 0l245.333333-245.333333c7.466667-7.466667 9.6-18.133333 8.533333-27.733333C667.733333 502.4 664.533333 491.733333 657.066667 484.266667zM512 0C229.333333 0 0 229.333333 0 512s229.333333 512 512 512 512-229.333333 512-512S794.666667 0 512 0zM512 960C264.533333 960 64 759.466667 64 512S264.533333 64 512 64s448 200.533333 448 448S759.466667 960 512 960z" p-id="1203" fill="#515151"></path></svg>